%TF.GenerationSoftware,KiCad,Pcbnew,10.0.1*%
%TF.CreationDate,2026-05-08T15:06:43-06:00*%
%TF.ProjectId,modulos,6d6f6475-6c6f-4732-9e6b-696361645f70,rev?*%
%TF.SameCoordinates,Original*%
%TF.FileFunction,Copper,L2,Bot*%
%TF.FilePolarity,Positive*%
%FSLAX46Y46*%
G04 Gerber Fmt 4.6, Leading zero omitted, Abs format (unit mm)*
G04 Created by KiCad (PCBNEW 10.0.1) date 2026-05-08 15:06:43*
%MOMM*%
%LPD*%
G01*
G04 APERTURE LIST*
%TA.AperFunction,NonConductor*%
%ADD10C,0.200000*%
%TD*%
%TA.AperFunction,ComponentPad*%
%ADD11C,1.500000*%
%TD*%
%TA.AperFunction,ComponentPad*%
%ADD12R,1.500000X1.500000*%
%TD*%
%TA.AperFunction,ComponentPad*%
%ADD13R,1.700000X1.700000*%
%TD*%
%TA.AperFunction,ComponentPad*%
%ADD14C,1.700000*%
%TD*%
%TA.AperFunction,ComponentPad*%
%ADD15C,1.800000*%
%TD*%
%TA.AperFunction,ComponentPad*%
%ADD16R,1.800000X1.800000*%
%TD*%
%TA.AperFunction,ViaPad*%
%ADD17C,3.000000*%
%TD*%
%TA.AperFunction,ViaPad*%
%ADD18C,2.000000*%
%TD*%
%TA.AperFunction,Conductor*%
%ADD19C,0.500000*%
%TD*%
%TA.AperFunction,Conductor*%
%ADD20C,0.200000*%
%TD*%
G04 APERTURE END LIST*
D10*
X72500000Y-84500000D02*
X108500000Y-84500000D01*
X108500000Y-121500000D01*
X72500000Y-121500000D01*
X72500000Y-84500000D01*
D11*
%TO.P,U3,6,SCL_6*%
%TO.N,Net-(U1-P4)*%
X1310000Y-45725000D03*
%TO.P,U3,5,SDA_5*%
%TO.N,Net-(U1-P5)*%
X1310000Y-43185000D03*
%TO.P,U3,4,V0_4*%
%TO.N,+5V*%
X1310000Y-40645000D03*
%TO.P,U3,3,VLCD_3*%
%TO.N,unconnected-(U3-VLCD-Pad3)*%
X1310000Y-38105000D03*
%TO.P,U3,2,VDD_2*%
%TO.N,GND*%
X1310000Y-35565000D03*
D12*
%TO.P,U3,1,VSS_1*%
%TO.N,unconnected-(U3-VSS-Pad1)*%
X1310000Y-33025000D03*
%TD*%
D13*
%TO.P,IN_PCF8574,1*%
%TO.N,N/C*%
X103000000Y-96500000D03*
D14*
%TO.P,IN_PCF8574,2*%
X103000000Y-93960000D03*
%TO.P,IN_PCF8574,3*%
X103000000Y-91420000D03*
%TO.P,IN_PCF8574,4*%
X103000000Y-88880000D03*
%TD*%
D13*
%TO.P,OUT_P0-P3,1*%
%TO.N,N/C*%
X86580000Y-116000000D03*
D14*
%TO.P,OUT_P0-P3,2*%
X84040000Y-116000000D03*
%TO.P,OUT_P0-P3,3*%
X81500000Y-116000000D03*
%TO.P,OUT_P0-P3,4*%
X78960000Y-116000000D03*
%TD*%
D13*
%TO.P,OUT_24/12v,1*%
%TO.N,N/C*%
X94500000Y-112460000D03*
D14*
%TO.P,OUT_24/12v,2*%
X94500000Y-115000000D03*
%TD*%
%TO.P,IN_P0-P3,4*%
%TO.N,N/C*%
X78960000Y-111500000D03*
%TO.P,IN_P0-P3,3*%
X81500000Y-111500000D03*
%TO.P,IN_P0-P3,2*%
X84040000Y-111500000D03*
D13*
%TO.P,IN_P0-P3,1*%
X86580000Y-111500000D03*
%TD*%
%TO.P,OUT_PCF8574,1*%
%TO.N,N/C*%
X99000000Y-96540000D03*
D14*
%TO.P,OUT_PCF8574,2*%
X99000000Y-94000000D03*
%TO.P,OUT_PCF8574,3*%
X99000000Y-91460000D03*
%TO.P,OUT_PCF8574,4*%
X99000000Y-88920000D03*
%TD*%
D15*
%TO.P,R220,2*%
%TO.N,N/C*%
X78880000Y-106500000D03*
%TO.P,R220,1*%
X86500000Y-106500000D03*
%TD*%
D13*
%TO.P,IN_24/12v,1*%
%TO.N,N/C*%
X99000000Y-112460000D03*
D14*
%TO.P,IN_24/12v,2*%
X99000000Y-115000000D03*
%TD*%
D16*
%TO.P,LED,1*%
%TO.N,N/C*%
X91460000Y-106500000D03*
D15*
%TO.P,LED,2*%
X94000000Y-106500000D03*
%TD*%
D17*
%TO.N,*%
X74500000Y-119500000D03*
X74500000Y-86500000D03*
X106500000Y-119500000D03*
X106500000Y-86500000D03*
D18*
X97625000Y-106500000D03*
X103500000Y-106500000D03*
X103500000Y-112500000D03*
X103500000Y-115000000D03*
X100500000Y-106500000D03*
%TD*%
%TO.N,*%
D19*
X78960000Y-116000000D02*
X78960000Y-111500000D01*
X94500000Y-112460000D02*
X99000000Y-112460000D01*
X99000000Y-115000000D02*
X94500000Y-115000000D01*
X103500000Y-115000000D02*
X99000000Y-115000000D01*
X102960000Y-112460000D02*
X99000000Y-112460000D01*
D20*
X103000000Y-112500000D02*
X102960000Y-112460000D01*
X103500000Y-112500000D02*
X103000000Y-112500000D01*
D19*
X99000000Y-88920000D02*
X102960000Y-88920000D01*
D20*
X102960000Y-88920000D02*
X103000000Y-88880000D01*
X102960000Y-91460000D02*
X103000000Y-91420000D01*
D19*
X99000000Y-91460000D02*
X102960000Y-91460000D01*
D20*
X102960000Y-94000000D02*
X103000000Y-93960000D01*
D19*
X99000000Y-94000000D02*
X102960000Y-94000000D01*
D20*
X102960000Y-96540000D02*
X103000000Y-96500000D01*
D19*
X99000000Y-96540000D02*
X102960000Y-96540000D01*
X100500000Y-106500000D02*
X103500000Y-106500000D01*
X97625000Y-106500000D02*
X100500000Y-106500000D01*
X94000000Y-106500000D02*
X97625000Y-106500000D01*
D20*
X78880000Y-111420000D02*
X78960000Y-111500000D01*
D19*
X78880000Y-106500000D02*
X78880000Y-111420000D01*
%TD*%
M02*
