%TF.GenerationSoftware,KiCad,Pcbnew,10.0.1*%
%TF.CreationDate,2026-05-08T15:06:43-06:00*%
%TF.ProjectId,modulos,6d6f6475-6c6f-4732-9e6b-696361645f70,rev?*%
%TF.SameCoordinates,Original*%
%TF.FileFunction,Copper,L1,Top*%
%TF.FilePolarity,Positive*%
%FSLAX46Y46*%
G04 Gerber Fmt 4.6, Leading zero omitted, Abs format (unit mm)*
G04 Created by KiCad (PCBNEW 10.0.1) date 2026-05-08 15:06:43*
%MOMM*%
%LPD*%
G01*
G04 APERTURE LIST*
G04 Aperture macros list*
%AMRoundRect*
0 Rectangle with rounded corners*
0 $1 Rounding radius*
0 $2 $3 $4 $5 $6 $7 $8 $9 X,Y pos of 4 corners*
0 Add a 4 corners polygon primitive as box body*
4,1,4,$2,$3,$4,$5,$6,$7,$8,$9,$2,$3,0*
0 Add four circle primitives for the rounded corners*
1,1,$1+$1,$2,$3*
1,1,$1+$1,$4,$5*
1,1,$1+$1,$6,$7*
1,1,$1+$1,$8,$9*
0 Add four rect primitives between the rounded corners*
20,1,$1+$1,$2,$3,$4,$5,0*
20,1,$1+$1,$4,$5,$6,$7,0*
20,1,$1+$1,$6,$7,$8,$9,0*
20,1,$1+$1,$8,$9,$2,$3,0*%
G04 Aperture macros list end*
%TA.AperFunction,NonConductor*%
%ADD10C,0.200000*%
%TD*%
%ADD11C,0.175000*%
%TA.AperFunction,NonConductor*%
%ADD12C,0.175000*%
%TD*%
%ADD13C,0.300000*%
%TA.AperFunction,NonConductor*%
%ADD14C,0.300000*%
%TD*%
%TA.AperFunction,ComponentPad*%
%ADD15C,1.500000*%
%TD*%
%TA.AperFunction,ComponentPad*%
%ADD16R,1.500000X1.500000*%
%TD*%
%TA.AperFunction,SMDPad,CuDef*%
%ADD17RoundRect,0.150000X-0.875000X-0.150000X0.875000X-0.150000X0.875000X0.150000X-0.875000X0.150000X0*%
%TD*%
%TA.AperFunction,ComponentPad*%
%ADD18R,1.700000X1.700000*%
%TD*%
%TA.AperFunction,ComponentPad*%
%ADD19C,1.700000*%
%TD*%
%TA.AperFunction,ComponentPad*%
%ADD20C,1.800000*%
%TD*%
%TA.AperFunction,ComponentPad*%
%ADD21R,1.800000X1.800000*%
%TD*%
%TA.AperFunction,ViaPad*%
%ADD22C,3.000000*%
%TD*%
%TA.AperFunction,ViaPad*%
%ADD23C,2.000000*%
%TD*%
%TA.AperFunction,Conductor*%
%ADD24C,0.200000*%
%TD*%
G04 APERTURE END LIST*
D10*
X72500000Y-84500000D02*
X108500000Y-84500000D01*
X108500000Y-121500000D01*
X72500000Y-121500000D01*
X72500000Y-84500000D01*
D11*
D12*
X95781797Y-104138566D02*
X96315131Y-104138566D01*
D11*
D12*
X89281797Y-104138566D02*
X89815131Y-104138566D01*
X89548464Y-104405233D02*
X89548464Y-103871900D01*
D13*
D14*
X105054510Y-115229400D02*
X106197368Y-115229400D01*
D13*
D14*
X105054510Y-112229400D02*
X106197368Y-112229400D01*
X105625939Y-112800828D02*
X105625939Y-111657971D01*
D13*
D14*
X99340225Y-102872257D02*
X99197368Y-102800828D01*
X99197368Y-102800828D02*
X98983082Y-102800828D01*
X98983082Y-102800828D02*
X98768796Y-102872257D01*
X98768796Y-102872257D02*
X98625939Y-103015114D01*
X98625939Y-103015114D02*
X98554510Y-103157971D01*
X98554510Y-103157971D02*
X98483082Y-103443685D01*
X98483082Y-103443685D02*
X98483082Y-103657971D01*
X98483082Y-103657971D02*
X98554510Y-103943685D01*
X98554510Y-103943685D02*
X98625939Y-104086542D01*
X98625939Y-104086542D02*
X98768796Y-104229400D01*
X98768796Y-104229400D02*
X98983082Y-104300828D01*
X98983082Y-104300828D02*
X99125939Y-104300828D01*
X99125939Y-104300828D02*
X99340225Y-104229400D01*
X99340225Y-104229400D02*
X99411653Y-104157971D01*
X99411653Y-104157971D02*
X99411653Y-103657971D01*
X99411653Y-103657971D02*
X99125939Y-103657971D01*
X100054510Y-103300828D02*
X100054510Y-104300828D01*
X100054510Y-103443685D02*
X100125939Y-103372257D01*
X100125939Y-103372257D02*
X100268796Y-103300828D01*
X100268796Y-103300828D02*
X100483082Y-103300828D01*
X100483082Y-103300828D02*
X100625939Y-103372257D01*
X100625939Y-103372257D02*
X100697368Y-103515114D01*
X100697368Y-103515114D02*
X100697368Y-104300828D01*
X102054511Y-104300828D02*
X102054511Y-102800828D01*
X102054511Y-104229400D02*
X101911653Y-104300828D01*
X101911653Y-104300828D02*
X101625939Y-104300828D01*
X101625939Y-104300828D02*
X101483082Y-104229400D01*
X101483082Y-104229400D02*
X101411653Y-104157971D01*
X101411653Y-104157971D02*
X101340225Y-104015114D01*
X101340225Y-104015114D02*
X101340225Y-103586542D01*
X101340225Y-103586542D02*
X101411653Y-103443685D01*
X101411653Y-103443685D02*
X101483082Y-103372257D01*
X101483082Y-103372257D02*
X101625939Y-103300828D01*
X101625939Y-103300828D02*
X101911653Y-103300828D01*
X101911653Y-103300828D02*
X102054511Y-103372257D01*
D15*
%TO.P,U3,6,SCL_6*%
%TO.N,Net-(U1-P4)*%
X1310000Y-45725000D03*
%TO.P,U3,5,SDA_5*%
%TO.N,Net-(U1-P5)*%
X1310000Y-43185000D03*
%TO.P,U3,4,V0_4*%
%TO.N,+5V*%
X1310000Y-40645000D03*
%TO.P,U3,3,VLCD_3*%
%TO.N,unconnected-(U3-VLCD-Pad3)*%
X1310000Y-38105000D03*
%TO.P,U3,2,VDD_2*%
%TO.N,GND*%
X1310000Y-35565000D03*
D16*
%TO.P,U3,1,VSS_1*%
%TO.N,unconnected-(U3-VSS-Pad1)*%
X1310000Y-33025000D03*
%TD*%
D17*
%TO.P,U1,16,VDD_16*%
%TO.N,+5V*%
X46335000Y-1095000D03*
%TO.P,U1,15,SDA_15*%
%TO.N,unconnected-(U1-SDA-Pad15)*%
X46335000Y-2365000D03*
%TO.P,U1,14,SCL_14*%
%TO.N,unconnected-(U1-SCL-Pad14)*%
X46335000Y-3635000D03*
%TO.P,U1,13,~{INT}_13*%
%TO.N,unconnected-(U1-~{INT}-Pad13)*%
X46335000Y-4905000D03*
%TO.P,U1,12,P7_12*%
%TO.N,unconnected-(U1-P7-Pad12)*%
X46335000Y-6175000D03*
%TO.P,U1,11,P6_11*%
%TO.N,unconnected-(U1-P6-Pad11)*%
X46335000Y-7445000D03*
%TO.P,U1,10,P5_10*%
%TO.N,Net-(U1-P5)*%
X46335000Y-8715000D03*
%TO.P,U1,9,P4_9*%
%TO.N,Net-(U1-P4)*%
X46335000Y-9985000D03*
%TO.P,U1,8,GND_8*%
%TO.N,GND*%
X37035000Y-9985000D03*
%TO.P,U1,7,P3_7*%
%TO.N,Net-(U1-P3)*%
X37035000Y-8715000D03*
%TO.P,U1,6,P2_6*%
%TO.N,Net-(U1-P2)*%
X37035000Y-7445000D03*
%TO.P,U1,5,P1_5*%
%TO.N,Net-(U1-P1)*%
X37035000Y-6175000D03*
%TO.P,U1,4,P0_4*%
%TO.N,+24V*%
X37035000Y-4905000D03*
%TO.P,U1,3,A2_3*%
%TO.N,unconnected-(U1-A2-Pad3)*%
X37035000Y-3635000D03*
%TO.P,U1,2,A1_2*%
%TO.N,unconnected-(U1-A1-Pad2)*%
X37035000Y-2365000D03*
%TO.P,U1,1,A0_1*%
%TO.N,unconnected-(U1-A0-Pad1)*%
X37035000Y-1095000D03*
%TD*%
D18*
%TO.P,IN_PCF8574,1*%
%TO.N,N/C*%
X103000000Y-96500000D03*
D19*
%TO.P,IN_PCF8574,2*%
X103000000Y-93960000D03*
%TO.P,IN_PCF8574,3*%
X103000000Y-91420000D03*
%TO.P,IN_PCF8574,4*%
X103000000Y-88880000D03*
%TD*%
D18*
%TO.P,OUT_P0-P3,1*%
%TO.N,N/C*%
X86580000Y-116000000D03*
D19*
%TO.P,OUT_P0-P3,2*%
X84040000Y-116000000D03*
%TO.P,OUT_P0-P3,3*%
X81500000Y-116000000D03*
%TO.P,OUT_P0-P3,4*%
X78960000Y-116000000D03*
%TD*%
D18*
%TO.P,OUT_24/12v,1*%
%TO.N,N/C*%
X94500000Y-112460000D03*
D19*
%TO.P,OUT_24/12v,2*%
X94500000Y-115000000D03*
%TD*%
%TO.P,IN_P0-P3,4*%
%TO.N,N/C*%
X78960000Y-111500000D03*
%TO.P,IN_P0-P3,3*%
X81500000Y-111500000D03*
%TO.P,IN_P0-P3,2*%
X84040000Y-111500000D03*
D18*
%TO.P,IN_P0-P3,1*%
X86580000Y-111500000D03*
%TD*%
%TO.P,OUT_PCF8574,1*%
%TO.N,N/C*%
X99000000Y-96540000D03*
D19*
%TO.P,OUT_PCF8574,2*%
X99000000Y-94000000D03*
%TO.P,OUT_PCF8574,3*%
X99000000Y-91460000D03*
%TO.P,OUT_PCF8574,4*%
X99000000Y-88920000D03*
%TD*%
D20*
%TO.P,R220,2*%
%TO.N,N/C*%
X78880000Y-106500000D03*
%TO.P,R220,1*%
X86500000Y-106500000D03*
%TD*%
D18*
%TO.P,IN_24/12v,1*%
%TO.N,N/C*%
X99000000Y-112460000D03*
D19*
%TO.P,IN_24/12v,2*%
X99000000Y-115000000D03*
%TD*%
D21*
%TO.P,LED,1*%
%TO.N,N/C*%
X91460000Y-106500000D03*
D20*
%TO.P,LED,2*%
X94000000Y-106500000D03*
%TD*%
D22*
%TO.N,*%
X74500000Y-119500000D03*
X74500000Y-86500000D03*
X106500000Y-119500000D03*
X106500000Y-86500000D03*
D23*
X97625000Y-106500000D03*
X103500000Y-106500000D03*
X103500000Y-112500000D03*
X103500000Y-115000000D03*
X100500000Y-106500000D03*
%TD*%
%TO.N,*%
D24*
X103500000Y-114080000D02*
X103460000Y-114040000D01*
X103500000Y-115000000D02*
X103500000Y-114080000D01*
X99040000Y-96500000D02*
X99000000Y-96540000D01*
X99040000Y-93960000D02*
X99000000Y-94000000D01*
X99040000Y-91420000D02*
X99000000Y-91460000D01*
X99040000Y-88880000D02*
X99000000Y-88920000D01*
%TD*%
M02*
