%TF.GenerationSoftware,KiCad,Pcbnew,10.0.1*%
%TF.CreationDate,2026-05-08T15:06:43-06:00*%
%TF.ProjectId,modulos,6d6f6475-6c6f-4732-9e6b-696361645f70,rev?*%
%TF.SameCoordinates,Original*%
%TF.FileFunction,Legend,Top*%
%TF.FilePolarity,Positive*%
%FSLAX46Y46*%
G04 Gerber Fmt 4.6, Leading zero omitted, Abs format (unit mm)*
G04 Created by KiCad (PCBNEW 10.0.1) date 2026-05-08 15:06:43*
%MOMM*%
%LPD*%
G01*
G04 APERTURE LIST*
%ADD10C,0.150000*%
%ADD11C,0.120000*%
G04 APERTURE END LIST*
D10*
X2598095Y270180D02*
X2598095Y-539342D01*
X2598095Y-539342D02*
X2645714Y-634580D01*
X2645714Y-634580D02*
X2693333Y-682200D01*
X2693333Y-682200D02*
X2788571Y-729819D01*
X2788571Y-729819D02*
X2979047Y-729819D01*
X2979047Y-729819D02*
X3074285Y-682200D01*
X3074285Y-682200D02*
X3121904Y-634580D01*
X3121904Y-634580D02*
X3169523Y-539342D01*
X3169523Y-539342D02*
X3169523Y270180D01*
X3550476Y270180D02*
X4169523Y270180D01*
X4169523Y270180D02*
X3836190Y-110771D01*
X3836190Y-110771D02*
X3979047Y-110771D01*
X3979047Y-110771D02*
X4074285Y-158390D01*
X4074285Y-158390D02*
X4121904Y-206009D01*
X4121904Y-206009D02*
X4169523Y-301247D01*
X4169523Y-301247D02*
X4169523Y-539342D01*
X4169523Y-539342D02*
X4121904Y-634580D01*
X4121904Y-634580D02*
X4074285Y-682200D01*
X4074285Y-682200D02*
X3979047Y-729819D01*
X3979047Y-729819D02*
X3693333Y-729819D01*
X3693333Y-729819D02*
X3598095Y-682200D01*
X3598095Y-682200D02*
X3550476Y-634580D01*
X40923095Y1105180D02*
X40923095Y295657D01*
X40923095Y295657D02*
X40970714Y200419D01*
X40970714Y200419D02*
X41018333Y152800D01*
X41018333Y152800D02*
X41113571Y105180D01*
X41113571Y105180D02*
X41304047Y105180D01*
X41304047Y105180D02*
X41399285Y152800D01*
X41399285Y152800D02*
X41446904Y200419D01*
X41446904Y200419D02*
X41494523Y295657D01*
X41494523Y295657D02*
X41494523Y1105180D01*
X42494523Y105180D02*
X41923095Y105180D01*
X42208809Y105180D02*
X42208809Y1105180D01*
X42208809Y1105180D02*
X42113571Y962323D01*
X42113571Y962323D02*
X42018333Y867085D01*
X42018333Y867085D02*
X41923095Y819466D01*
X106454819Y-97238094D02*
X105454819Y-97238094D01*
X106454819Y-96761904D02*
X105454819Y-96761904D01*
X105454819Y-96761904D02*
X106454819Y-96190476D01*
X106454819Y-96190476D02*
X105454819Y-96190476D01*
X106550057Y-95952381D02*
X106550057Y-95190476D01*
X106454819Y-94952380D02*
X105454819Y-94952380D01*
X105454819Y-94952380D02*
X105454819Y-94571428D01*
X105454819Y-94571428D02*
X105502438Y-94476190D01*
X105502438Y-94476190D02*
X105550057Y-94428571D01*
X105550057Y-94428571D02*
X105645295Y-94380952D01*
X105645295Y-94380952D02*
X105788152Y-94380952D01*
X105788152Y-94380952D02*
X105883390Y-94428571D01*
X105883390Y-94428571D02*
X105931009Y-94476190D01*
X105931009Y-94476190D02*
X105978628Y-94571428D01*
X105978628Y-94571428D02*
X105978628Y-94952380D01*
X106359580Y-93380952D02*
X106407200Y-93428571D01*
X106407200Y-93428571D02*
X106454819Y-93571428D01*
X106454819Y-93571428D02*
X106454819Y-93666666D01*
X106454819Y-93666666D02*
X106407200Y-93809523D01*
X106407200Y-93809523D02*
X106311961Y-93904761D01*
X106311961Y-93904761D02*
X106216723Y-93952380D01*
X106216723Y-93952380D02*
X106026247Y-93999999D01*
X106026247Y-93999999D02*
X105883390Y-93999999D01*
X105883390Y-93999999D02*
X105692914Y-93952380D01*
X105692914Y-93952380D02*
X105597676Y-93904761D01*
X105597676Y-93904761D02*
X105502438Y-93809523D01*
X105502438Y-93809523D02*
X105454819Y-93666666D01*
X105454819Y-93666666D02*
X105454819Y-93571428D01*
X105454819Y-93571428D02*
X105502438Y-93428571D01*
X105502438Y-93428571D02*
X105550057Y-93380952D01*
X105931009Y-92619047D02*
X105931009Y-92952380D01*
X106454819Y-92952380D02*
X105454819Y-92952380D01*
X105454819Y-92952380D02*
X105454819Y-92476190D01*
X105883390Y-91952380D02*
X105835771Y-92047618D01*
X105835771Y-92047618D02*
X105788152Y-92095237D01*
X105788152Y-92095237D02*
X105692914Y-92142856D01*
X105692914Y-92142856D02*
X105645295Y-92142856D01*
X105645295Y-92142856D02*
X105550057Y-92095237D01*
X105550057Y-92095237D02*
X105502438Y-92047618D01*
X105502438Y-92047618D02*
X105454819Y-91952380D01*
X105454819Y-91952380D02*
X105454819Y-91761904D01*
X105454819Y-91761904D02*
X105502438Y-91666666D01*
X105502438Y-91666666D02*
X105550057Y-91619047D01*
X105550057Y-91619047D02*
X105645295Y-91571428D01*
X105645295Y-91571428D02*
X105692914Y-91571428D01*
X105692914Y-91571428D02*
X105788152Y-91619047D01*
X105788152Y-91619047D02*
X105835771Y-91666666D01*
X105835771Y-91666666D02*
X105883390Y-91761904D01*
X105883390Y-91761904D02*
X105883390Y-91952380D01*
X105883390Y-91952380D02*
X105931009Y-92047618D01*
X105931009Y-92047618D02*
X105978628Y-92095237D01*
X105978628Y-92095237D02*
X106073866Y-92142856D01*
X106073866Y-92142856D02*
X106264342Y-92142856D01*
X106264342Y-92142856D02*
X106359580Y-92095237D01*
X106359580Y-92095237D02*
X106407200Y-92047618D01*
X106407200Y-92047618D02*
X106454819Y-91952380D01*
X106454819Y-91952380D02*
X106454819Y-91761904D01*
X106454819Y-91761904D02*
X106407200Y-91666666D01*
X106407200Y-91666666D02*
X106359580Y-91619047D01*
X106359580Y-91619047D02*
X106264342Y-91571428D01*
X106264342Y-91571428D02*
X106073866Y-91571428D01*
X106073866Y-91571428D02*
X105978628Y-91619047D01*
X105978628Y-91619047D02*
X105931009Y-91666666D01*
X105931009Y-91666666D02*
X105883390Y-91761904D01*
X105454819Y-90666666D02*
X105454819Y-91142856D01*
X105454819Y-91142856D02*
X105931009Y-91190475D01*
X105931009Y-91190475D02*
X105883390Y-91142856D01*
X105883390Y-91142856D02*
X105835771Y-91047618D01*
X105835771Y-91047618D02*
X105835771Y-90809523D01*
X105835771Y-90809523D02*
X105883390Y-90714285D01*
X105883390Y-90714285D02*
X105931009Y-90666666D01*
X105931009Y-90666666D02*
X106026247Y-90619047D01*
X106026247Y-90619047D02*
X106264342Y-90619047D01*
X106264342Y-90619047D02*
X106359580Y-90666666D01*
X106359580Y-90666666D02*
X106407200Y-90714285D01*
X106407200Y-90714285D02*
X106454819Y-90809523D01*
X106454819Y-90809523D02*
X106454819Y-91047618D01*
X106454819Y-91047618D02*
X106407200Y-91142856D01*
X106407200Y-91142856D02*
X106359580Y-91190475D01*
X105454819Y-90285713D02*
X105454819Y-89619047D01*
X105454819Y-89619047D02*
X106454819Y-90047618D01*
X105788152Y-88809523D02*
X106454819Y-88809523D01*
X105407200Y-89047618D02*
X106121485Y-89285713D01*
X106121485Y-89285713D02*
X106121485Y-88666666D01*
X78627619Y-118454819D02*
X78818095Y-118454819D01*
X78818095Y-118454819D02*
X78913333Y-118502438D01*
X78913333Y-118502438D02*
X79008571Y-118597676D01*
X79008571Y-118597676D02*
X79056190Y-118788152D01*
X79056190Y-118788152D02*
X79056190Y-119121485D01*
X79056190Y-119121485D02*
X79008571Y-119311961D01*
X79008571Y-119311961D02*
X78913333Y-119407200D01*
X78913333Y-119407200D02*
X78818095Y-119454819D01*
X78818095Y-119454819D02*
X78627619Y-119454819D01*
X78627619Y-119454819D02*
X78532381Y-119407200D01*
X78532381Y-119407200D02*
X78437143Y-119311961D01*
X78437143Y-119311961D02*
X78389524Y-119121485D01*
X78389524Y-119121485D02*
X78389524Y-118788152D01*
X78389524Y-118788152D02*
X78437143Y-118597676D01*
X78437143Y-118597676D02*
X78532381Y-118502438D01*
X78532381Y-118502438D02*
X78627619Y-118454819D01*
X79484762Y-118454819D02*
X79484762Y-119264342D01*
X79484762Y-119264342D02*
X79532381Y-119359580D01*
X79532381Y-119359580D02*
X79580000Y-119407200D01*
X79580000Y-119407200D02*
X79675238Y-119454819D01*
X79675238Y-119454819D02*
X79865714Y-119454819D01*
X79865714Y-119454819D02*
X79960952Y-119407200D01*
X79960952Y-119407200D02*
X80008571Y-119359580D01*
X80008571Y-119359580D02*
X80056190Y-119264342D01*
X80056190Y-119264342D02*
X80056190Y-118454819D01*
X80389524Y-118454819D02*
X80960952Y-118454819D01*
X80675238Y-119454819D02*
X80675238Y-118454819D01*
X81056191Y-119550057D02*
X81818095Y-119550057D01*
X82056191Y-119454819D02*
X82056191Y-118454819D01*
X82056191Y-118454819D02*
X82437143Y-118454819D01*
X82437143Y-118454819D02*
X82532381Y-118502438D01*
X82532381Y-118502438D02*
X82580000Y-118550057D01*
X82580000Y-118550057D02*
X82627619Y-118645295D01*
X82627619Y-118645295D02*
X82627619Y-118788152D01*
X82627619Y-118788152D02*
X82580000Y-118883390D01*
X82580000Y-118883390D02*
X82532381Y-118931009D01*
X82532381Y-118931009D02*
X82437143Y-118978628D01*
X82437143Y-118978628D02*
X82056191Y-118978628D01*
X83246667Y-118454819D02*
X83341905Y-118454819D01*
X83341905Y-118454819D02*
X83437143Y-118502438D01*
X83437143Y-118502438D02*
X83484762Y-118550057D01*
X83484762Y-118550057D02*
X83532381Y-118645295D01*
X83532381Y-118645295D02*
X83580000Y-118835771D01*
X83580000Y-118835771D02*
X83580000Y-119073866D01*
X83580000Y-119073866D02*
X83532381Y-119264342D01*
X83532381Y-119264342D02*
X83484762Y-119359580D01*
X83484762Y-119359580D02*
X83437143Y-119407200D01*
X83437143Y-119407200D02*
X83341905Y-119454819D01*
X83341905Y-119454819D02*
X83246667Y-119454819D01*
X83246667Y-119454819D02*
X83151429Y-119407200D01*
X83151429Y-119407200D02*
X83103810Y-119359580D01*
X83103810Y-119359580D02*
X83056191Y-119264342D01*
X83056191Y-119264342D02*
X83008572Y-119073866D01*
X83008572Y-119073866D02*
X83008572Y-118835771D01*
X83008572Y-118835771D02*
X83056191Y-118645295D01*
X83056191Y-118645295D02*
X83103810Y-118550057D01*
X83103810Y-118550057D02*
X83151429Y-118502438D01*
X83151429Y-118502438D02*
X83246667Y-118454819D01*
X84008572Y-119073866D02*
X84770477Y-119073866D01*
X85246667Y-119454819D02*
X85246667Y-118454819D01*
X85246667Y-118454819D02*
X85627619Y-118454819D01*
X85627619Y-118454819D02*
X85722857Y-118502438D01*
X85722857Y-118502438D02*
X85770476Y-118550057D01*
X85770476Y-118550057D02*
X85818095Y-118645295D01*
X85818095Y-118645295D02*
X85818095Y-118788152D01*
X85818095Y-118788152D02*
X85770476Y-118883390D01*
X85770476Y-118883390D02*
X85722857Y-118931009D01*
X85722857Y-118931009D02*
X85627619Y-118978628D01*
X85627619Y-118978628D02*
X85246667Y-118978628D01*
X86151429Y-118454819D02*
X86770476Y-118454819D01*
X86770476Y-118454819D02*
X86437143Y-118835771D01*
X86437143Y-118835771D02*
X86580000Y-118835771D01*
X86580000Y-118835771D02*
X86675238Y-118883390D01*
X86675238Y-118883390D02*
X86722857Y-118931009D01*
X86722857Y-118931009D02*
X86770476Y-119026247D01*
X86770476Y-119026247D02*
X86770476Y-119264342D01*
X86770476Y-119264342D02*
X86722857Y-119359580D01*
X86722857Y-119359580D02*
X86675238Y-119407200D01*
X86675238Y-119407200D02*
X86580000Y-119454819D01*
X86580000Y-119454819D02*
X86294286Y-119454819D01*
X86294286Y-119454819D02*
X86199048Y-119407200D01*
X86199048Y-119407200D02*
X86151429Y-119359580D01*
X90954819Y-118150476D02*
X90954819Y-117960000D01*
X90954819Y-117960000D02*
X91002438Y-117864762D01*
X91002438Y-117864762D02*
X91097676Y-117769524D01*
X91097676Y-117769524D02*
X91288152Y-117721905D01*
X91288152Y-117721905D02*
X91621485Y-117721905D01*
X91621485Y-117721905D02*
X91811961Y-117769524D01*
X91811961Y-117769524D02*
X91907200Y-117864762D01*
X91907200Y-117864762D02*
X91954819Y-117960000D01*
X91954819Y-117960000D02*
X91954819Y-118150476D01*
X91954819Y-118150476D02*
X91907200Y-118245714D01*
X91907200Y-118245714D02*
X91811961Y-118340952D01*
X91811961Y-118340952D02*
X91621485Y-118388571D01*
X91621485Y-118388571D02*
X91288152Y-118388571D01*
X91288152Y-118388571D02*
X91097676Y-118340952D01*
X91097676Y-118340952D02*
X91002438Y-118245714D01*
X91002438Y-118245714D02*
X90954819Y-118150476D01*
X90954819Y-117293333D02*
X91764342Y-117293333D01*
X91764342Y-117293333D02*
X91859580Y-117245714D01*
X91859580Y-117245714D02*
X91907200Y-117198095D01*
X91907200Y-117198095D02*
X91954819Y-117102857D01*
X91954819Y-117102857D02*
X91954819Y-116912381D01*
X91954819Y-116912381D02*
X91907200Y-116817143D01*
X91907200Y-116817143D02*
X91859580Y-116769524D01*
X91859580Y-116769524D02*
X91764342Y-116721905D01*
X91764342Y-116721905D02*
X90954819Y-116721905D01*
X90954819Y-116388571D02*
X90954819Y-115817143D01*
X91954819Y-116102857D02*
X90954819Y-116102857D01*
X92050057Y-115721905D02*
X92050057Y-114960000D01*
X91050057Y-114769523D02*
X91002438Y-114721904D01*
X91002438Y-114721904D02*
X90954819Y-114626666D01*
X90954819Y-114626666D02*
X90954819Y-114388571D01*
X90954819Y-114388571D02*
X91002438Y-114293333D01*
X91002438Y-114293333D02*
X91050057Y-114245714D01*
X91050057Y-114245714D02*
X91145295Y-114198095D01*
X91145295Y-114198095D02*
X91240533Y-114198095D01*
X91240533Y-114198095D02*
X91383390Y-114245714D01*
X91383390Y-114245714D02*
X91954819Y-114817142D01*
X91954819Y-114817142D02*
X91954819Y-114198095D01*
X91288152Y-113340952D02*
X91954819Y-113340952D01*
X90907200Y-113579047D02*
X91621485Y-113817142D01*
X91621485Y-113817142D02*
X91621485Y-113198095D01*
X90907200Y-112102857D02*
X92192914Y-112959999D01*
X91954819Y-111245714D02*
X91954819Y-111817142D01*
X91954819Y-111531428D02*
X90954819Y-111531428D01*
X90954819Y-111531428D02*
X91097676Y-111626666D01*
X91097676Y-111626666D02*
X91192914Y-111721904D01*
X91192914Y-111721904D02*
X91240533Y-111817142D01*
X91050057Y-110864761D02*
X91002438Y-110817142D01*
X91002438Y-110817142D02*
X90954819Y-110721904D01*
X90954819Y-110721904D02*
X90954819Y-110483809D01*
X90954819Y-110483809D02*
X91002438Y-110388571D01*
X91002438Y-110388571D02*
X91050057Y-110340952D01*
X91050057Y-110340952D02*
X91145295Y-110293333D01*
X91145295Y-110293333D02*
X91240533Y-110293333D01*
X91240533Y-110293333D02*
X91383390Y-110340952D01*
X91383390Y-110340952D02*
X91954819Y-110912380D01*
X91954819Y-110912380D02*
X91954819Y-110293333D01*
X91288152Y-109959999D02*
X91954819Y-109721904D01*
X91954819Y-109721904D02*
X91288152Y-109483809D01*
X76534819Y-114976189D02*
X75534819Y-114976189D01*
X76534819Y-114499999D02*
X75534819Y-114499999D01*
X75534819Y-114499999D02*
X76534819Y-113928571D01*
X76534819Y-113928571D02*
X75534819Y-113928571D01*
X76630057Y-113690476D02*
X76630057Y-112928571D01*
X76534819Y-112690475D02*
X75534819Y-112690475D01*
X75534819Y-112690475D02*
X75534819Y-112309523D01*
X75534819Y-112309523D02*
X75582438Y-112214285D01*
X75582438Y-112214285D02*
X75630057Y-112166666D01*
X75630057Y-112166666D02*
X75725295Y-112119047D01*
X75725295Y-112119047D02*
X75868152Y-112119047D01*
X75868152Y-112119047D02*
X75963390Y-112166666D01*
X75963390Y-112166666D02*
X76011009Y-112214285D01*
X76011009Y-112214285D02*
X76058628Y-112309523D01*
X76058628Y-112309523D02*
X76058628Y-112690475D01*
X75534819Y-111499999D02*
X75534819Y-111404761D01*
X75534819Y-111404761D02*
X75582438Y-111309523D01*
X75582438Y-111309523D02*
X75630057Y-111261904D01*
X75630057Y-111261904D02*
X75725295Y-111214285D01*
X75725295Y-111214285D02*
X75915771Y-111166666D01*
X75915771Y-111166666D02*
X76153866Y-111166666D01*
X76153866Y-111166666D02*
X76344342Y-111214285D01*
X76344342Y-111214285D02*
X76439580Y-111261904D01*
X76439580Y-111261904D02*
X76487200Y-111309523D01*
X76487200Y-111309523D02*
X76534819Y-111404761D01*
X76534819Y-111404761D02*
X76534819Y-111499999D01*
X76534819Y-111499999D02*
X76487200Y-111595237D01*
X76487200Y-111595237D02*
X76439580Y-111642856D01*
X76439580Y-111642856D02*
X76344342Y-111690475D01*
X76344342Y-111690475D02*
X76153866Y-111738094D01*
X76153866Y-111738094D02*
X75915771Y-111738094D01*
X75915771Y-111738094D02*
X75725295Y-111690475D01*
X75725295Y-111690475D02*
X75630057Y-111642856D01*
X75630057Y-111642856D02*
X75582438Y-111595237D01*
X75582438Y-111595237D02*
X75534819Y-111499999D01*
X76153866Y-110738094D02*
X76153866Y-109976190D01*
X76534819Y-109499999D02*
X75534819Y-109499999D01*
X75534819Y-109499999D02*
X75534819Y-109119047D01*
X75534819Y-109119047D02*
X75582438Y-109023809D01*
X75582438Y-109023809D02*
X75630057Y-108976190D01*
X75630057Y-108976190D02*
X75725295Y-108928571D01*
X75725295Y-108928571D02*
X75868152Y-108928571D01*
X75868152Y-108928571D02*
X75963390Y-108976190D01*
X75963390Y-108976190D02*
X76011009Y-109023809D01*
X76011009Y-109023809D02*
X76058628Y-109119047D01*
X76058628Y-109119047D02*
X76058628Y-109499999D01*
X75534819Y-108595237D02*
X75534819Y-107976190D01*
X75534819Y-107976190D02*
X75915771Y-108309523D01*
X75915771Y-108309523D02*
X75915771Y-108166666D01*
X75915771Y-108166666D02*
X75963390Y-108071428D01*
X75963390Y-108071428D02*
X76011009Y-108023809D01*
X76011009Y-108023809D02*
X76106247Y-107976190D01*
X76106247Y-107976190D02*
X76344342Y-107976190D01*
X76344342Y-107976190D02*
X76439580Y-108023809D01*
X76439580Y-108023809D02*
X76487200Y-108071428D01*
X76487200Y-108071428D02*
X76534819Y-108166666D01*
X76534819Y-108166666D02*
X76534819Y-108452380D01*
X76534819Y-108452380D02*
X76487200Y-108547618D01*
X76487200Y-108547618D02*
X76439580Y-108595237D01*
X89785714Y-85494819D02*
X89976190Y-85494819D01*
X89976190Y-85494819D02*
X90071428Y-85542438D01*
X90071428Y-85542438D02*
X90166666Y-85637676D01*
X90166666Y-85637676D02*
X90214285Y-85828152D01*
X90214285Y-85828152D02*
X90214285Y-86161485D01*
X90214285Y-86161485D02*
X90166666Y-86351961D01*
X90166666Y-86351961D02*
X90071428Y-86447200D01*
X90071428Y-86447200D02*
X89976190Y-86494819D01*
X89976190Y-86494819D02*
X89785714Y-86494819D01*
X89785714Y-86494819D02*
X89690476Y-86447200D01*
X89690476Y-86447200D02*
X89595238Y-86351961D01*
X89595238Y-86351961D02*
X89547619Y-86161485D01*
X89547619Y-86161485D02*
X89547619Y-85828152D01*
X89547619Y-85828152D02*
X89595238Y-85637676D01*
X89595238Y-85637676D02*
X89690476Y-85542438D01*
X89690476Y-85542438D02*
X89785714Y-85494819D01*
X90642857Y-85494819D02*
X90642857Y-86304342D01*
X90642857Y-86304342D02*
X90690476Y-86399580D01*
X90690476Y-86399580D02*
X90738095Y-86447200D01*
X90738095Y-86447200D02*
X90833333Y-86494819D01*
X90833333Y-86494819D02*
X91023809Y-86494819D01*
X91023809Y-86494819D02*
X91119047Y-86447200D01*
X91119047Y-86447200D02*
X91166666Y-86399580D01*
X91166666Y-86399580D02*
X91214285Y-86304342D01*
X91214285Y-86304342D02*
X91214285Y-85494819D01*
X91547619Y-85494819D02*
X92119047Y-85494819D01*
X91833333Y-86494819D02*
X91833333Y-85494819D01*
X92214286Y-86590057D02*
X92976190Y-86590057D01*
X93214286Y-86494819D02*
X93214286Y-85494819D01*
X93214286Y-85494819D02*
X93595238Y-85494819D01*
X93595238Y-85494819D02*
X93690476Y-85542438D01*
X93690476Y-85542438D02*
X93738095Y-85590057D01*
X93738095Y-85590057D02*
X93785714Y-85685295D01*
X93785714Y-85685295D02*
X93785714Y-85828152D01*
X93785714Y-85828152D02*
X93738095Y-85923390D01*
X93738095Y-85923390D02*
X93690476Y-85971009D01*
X93690476Y-85971009D02*
X93595238Y-86018628D01*
X93595238Y-86018628D02*
X93214286Y-86018628D01*
X94785714Y-86399580D02*
X94738095Y-86447200D01*
X94738095Y-86447200D02*
X94595238Y-86494819D01*
X94595238Y-86494819D02*
X94500000Y-86494819D01*
X94500000Y-86494819D02*
X94357143Y-86447200D01*
X94357143Y-86447200D02*
X94261905Y-86351961D01*
X94261905Y-86351961D02*
X94214286Y-86256723D01*
X94214286Y-86256723D02*
X94166667Y-86066247D01*
X94166667Y-86066247D02*
X94166667Y-85923390D01*
X94166667Y-85923390D02*
X94214286Y-85732914D01*
X94214286Y-85732914D02*
X94261905Y-85637676D01*
X94261905Y-85637676D02*
X94357143Y-85542438D01*
X94357143Y-85542438D02*
X94500000Y-85494819D01*
X94500000Y-85494819D02*
X94595238Y-85494819D01*
X94595238Y-85494819D02*
X94738095Y-85542438D01*
X94738095Y-85542438D02*
X94785714Y-85590057D01*
X95547619Y-85971009D02*
X95214286Y-85971009D01*
X95214286Y-86494819D02*
X95214286Y-85494819D01*
X95214286Y-85494819D02*
X95690476Y-85494819D01*
X96214286Y-85923390D02*
X96119048Y-85875771D01*
X96119048Y-85875771D02*
X96071429Y-85828152D01*
X96071429Y-85828152D02*
X96023810Y-85732914D01*
X96023810Y-85732914D02*
X96023810Y-85685295D01*
X96023810Y-85685295D02*
X96071429Y-85590057D01*
X96071429Y-85590057D02*
X96119048Y-85542438D01*
X96119048Y-85542438D02*
X96214286Y-85494819D01*
X96214286Y-85494819D02*
X96404762Y-85494819D01*
X96404762Y-85494819D02*
X96500000Y-85542438D01*
X96500000Y-85542438D02*
X96547619Y-85590057D01*
X96547619Y-85590057D02*
X96595238Y-85685295D01*
X96595238Y-85685295D02*
X96595238Y-85732914D01*
X96595238Y-85732914D02*
X96547619Y-85828152D01*
X96547619Y-85828152D02*
X96500000Y-85875771D01*
X96500000Y-85875771D02*
X96404762Y-85923390D01*
X96404762Y-85923390D02*
X96214286Y-85923390D01*
X96214286Y-85923390D02*
X96119048Y-85971009D01*
X96119048Y-85971009D02*
X96071429Y-86018628D01*
X96071429Y-86018628D02*
X96023810Y-86113866D01*
X96023810Y-86113866D02*
X96023810Y-86304342D01*
X96023810Y-86304342D02*
X96071429Y-86399580D01*
X96071429Y-86399580D02*
X96119048Y-86447200D01*
X96119048Y-86447200D02*
X96214286Y-86494819D01*
X96214286Y-86494819D02*
X96404762Y-86494819D01*
X96404762Y-86494819D02*
X96500000Y-86447200D01*
X96500000Y-86447200D02*
X96547619Y-86399580D01*
X96547619Y-86399580D02*
X96595238Y-86304342D01*
X96595238Y-86304342D02*
X96595238Y-86113866D01*
X96595238Y-86113866D02*
X96547619Y-86018628D01*
X96547619Y-86018628D02*
X96500000Y-85971009D01*
X96500000Y-85971009D02*
X96404762Y-85923390D01*
X97500000Y-85494819D02*
X97023810Y-85494819D01*
X97023810Y-85494819D02*
X96976191Y-85971009D01*
X96976191Y-85971009D02*
X97023810Y-85923390D01*
X97023810Y-85923390D02*
X97119048Y-85875771D01*
X97119048Y-85875771D02*
X97357143Y-85875771D01*
X97357143Y-85875771D02*
X97452381Y-85923390D01*
X97452381Y-85923390D02*
X97500000Y-85971009D01*
X97500000Y-85971009D02*
X97547619Y-86066247D01*
X97547619Y-86066247D02*
X97547619Y-86304342D01*
X97547619Y-86304342D02*
X97500000Y-86399580D01*
X97500000Y-86399580D02*
X97452381Y-86447200D01*
X97452381Y-86447200D02*
X97357143Y-86494819D01*
X97357143Y-86494819D02*
X97119048Y-86494819D01*
X97119048Y-86494819D02*
X97023810Y-86447200D01*
X97023810Y-86447200D02*
X96976191Y-86399580D01*
X97880953Y-85494819D02*
X98547619Y-85494819D01*
X98547619Y-85494819D02*
X98119048Y-86494819D01*
X99357143Y-85828152D02*
X99357143Y-86494819D01*
X99119048Y-85447200D02*
X98880953Y-86161485D01*
X98880953Y-86161485D02*
X99500000Y-86161485D01*
X81570952Y-108874819D02*
X81237619Y-108398628D01*
X80999524Y-108874819D02*
X80999524Y-107874819D01*
X80999524Y-107874819D02*
X81380476Y-107874819D01*
X81380476Y-107874819D02*
X81475714Y-107922438D01*
X81475714Y-107922438D02*
X81523333Y-107970057D01*
X81523333Y-107970057D02*
X81570952Y-108065295D01*
X81570952Y-108065295D02*
X81570952Y-108208152D01*
X81570952Y-108208152D02*
X81523333Y-108303390D01*
X81523333Y-108303390D02*
X81475714Y-108351009D01*
X81475714Y-108351009D02*
X81380476Y-108398628D01*
X81380476Y-108398628D02*
X80999524Y-108398628D01*
X81951905Y-107970057D02*
X81999524Y-107922438D01*
X81999524Y-107922438D02*
X82094762Y-107874819D01*
X82094762Y-107874819D02*
X82332857Y-107874819D01*
X82332857Y-107874819D02*
X82428095Y-107922438D01*
X82428095Y-107922438D02*
X82475714Y-107970057D01*
X82475714Y-107970057D02*
X82523333Y-108065295D01*
X82523333Y-108065295D02*
X82523333Y-108160533D01*
X82523333Y-108160533D02*
X82475714Y-108303390D01*
X82475714Y-108303390D02*
X81904286Y-108874819D01*
X81904286Y-108874819D02*
X82523333Y-108874819D01*
X82904286Y-107970057D02*
X82951905Y-107922438D01*
X82951905Y-107922438D02*
X83047143Y-107874819D01*
X83047143Y-107874819D02*
X83285238Y-107874819D01*
X83285238Y-107874819D02*
X83380476Y-107922438D01*
X83380476Y-107922438D02*
X83428095Y-107970057D01*
X83428095Y-107970057D02*
X83475714Y-108065295D01*
X83475714Y-108065295D02*
X83475714Y-108160533D01*
X83475714Y-108160533D02*
X83428095Y-108303390D01*
X83428095Y-108303390D02*
X82856667Y-108874819D01*
X82856667Y-108874819D02*
X83475714Y-108874819D01*
X84094762Y-107874819D02*
X84190000Y-107874819D01*
X84190000Y-107874819D02*
X84285238Y-107922438D01*
X84285238Y-107922438D02*
X84332857Y-107970057D01*
X84332857Y-107970057D02*
X84380476Y-108065295D01*
X84380476Y-108065295D02*
X84428095Y-108255771D01*
X84428095Y-108255771D02*
X84428095Y-108493866D01*
X84428095Y-108493866D02*
X84380476Y-108684342D01*
X84380476Y-108684342D02*
X84332857Y-108779580D01*
X84332857Y-108779580D02*
X84285238Y-108827200D01*
X84285238Y-108827200D02*
X84190000Y-108874819D01*
X84190000Y-108874819D02*
X84094762Y-108874819D01*
X84094762Y-108874819D02*
X83999524Y-108827200D01*
X83999524Y-108827200D02*
X83951905Y-108779580D01*
X83951905Y-108779580D02*
X83904286Y-108684342D01*
X83904286Y-108684342D02*
X83856667Y-108493866D01*
X83856667Y-108493866D02*
X83856667Y-108255771D01*
X83856667Y-108255771D02*
X83904286Y-108065295D01*
X83904286Y-108065295D02*
X83951905Y-107970057D01*
X83951905Y-107970057D02*
X83999524Y-107922438D01*
X83999524Y-107922438D02*
X84094762Y-107874819D01*
X95285714Y-110534819D02*
X95285714Y-109534819D01*
X95761904Y-110534819D02*
X95761904Y-109534819D01*
X95761904Y-109534819D02*
X96333332Y-110534819D01*
X96333332Y-110534819D02*
X96333332Y-109534819D01*
X96571428Y-110630057D02*
X97333332Y-110630057D01*
X97523809Y-109630057D02*
X97571428Y-109582438D01*
X97571428Y-109582438D02*
X97666666Y-109534819D01*
X97666666Y-109534819D02*
X97904761Y-109534819D01*
X97904761Y-109534819D02*
X97999999Y-109582438D01*
X97999999Y-109582438D02*
X98047618Y-109630057D01*
X98047618Y-109630057D02*
X98095237Y-109725295D01*
X98095237Y-109725295D02*
X98095237Y-109820533D01*
X98095237Y-109820533D02*
X98047618Y-109963390D01*
X98047618Y-109963390D02*
X97476190Y-110534819D01*
X97476190Y-110534819D02*
X98095237Y-110534819D01*
X98952380Y-109868152D02*
X98952380Y-110534819D01*
X98714285Y-109487200D02*
X98476190Y-110201485D01*
X98476190Y-110201485D02*
X99095237Y-110201485D01*
X100190475Y-109487200D02*
X99333333Y-110772914D01*
X101047618Y-110534819D02*
X100476190Y-110534819D01*
X100761904Y-110534819D02*
X100761904Y-109534819D01*
X100761904Y-109534819D02*
X100666666Y-109677676D01*
X100666666Y-109677676D02*
X100571428Y-109772914D01*
X100571428Y-109772914D02*
X100476190Y-109820533D01*
X101428571Y-109630057D02*
X101476190Y-109582438D01*
X101476190Y-109582438D02*
X101571428Y-109534819D01*
X101571428Y-109534819D02*
X101809523Y-109534819D01*
X101809523Y-109534819D02*
X101904761Y-109582438D01*
X101904761Y-109582438D02*
X101952380Y-109630057D01*
X101952380Y-109630057D02*
X101999999Y-109725295D01*
X101999999Y-109725295D02*
X101999999Y-109820533D01*
X101999999Y-109820533D02*
X101952380Y-109963390D01*
X101952380Y-109963390D02*
X101380952Y-110534819D01*
X101380952Y-110534819D02*
X101999999Y-110534819D01*
X102333333Y-109868152D02*
X102571428Y-110534819D01*
X102571428Y-110534819D02*
X102809523Y-109868152D01*
X92087142Y-103994819D02*
X91610952Y-103994819D01*
X91610952Y-103994819D02*
X91610952Y-102994819D01*
X92420476Y-103471009D02*
X92753809Y-103471009D01*
X92896666Y-103994819D02*
X92420476Y-103994819D01*
X92420476Y-103994819D02*
X92420476Y-102994819D01*
X92420476Y-102994819D02*
X92896666Y-102994819D01*
X93325238Y-103994819D02*
X93325238Y-102994819D01*
X93325238Y-102994819D02*
X93563333Y-102994819D01*
X93563333Y-102994819D02*
X93706190Y-103042438D01*
X93706190Y-103042438D02*
X93801428Y-103137676D01*
X93801428Y-103137676D02*
X93849047Y-103232914D01*
X93849047Y-103232914D02*
X93896666Y-103423390D01*
X93896666Y-103423390D02*
X93896666Y-103566247D01*
X93896666Y-103566247D02*
X93849047Y-103756723D01*
X93849047Y-103756723D02*
X93801428Y-103851961D01*
X93801428Y-103851961D02*
X93706190Y-103947200D01*
X93706190Y-103947200D02*
X93563333Y-103994819D01*
X93563333Y-103994819D02*
X93325238Y-103994819D01*
%TO.C,U3*%
D11*
X34580000Y-47345000D02*
X1340000Y-47345000D01*
X34580000Y-1105000D02*
X34580000Y-47345000D01*
X31310000Y-5625000D02*
X31310000Y-41025000D01*
X26500000Y-1105000D02*
X34580000Y-1105000D01*
X26500000Y-1095000D02*
X26500000Y-155000D01*
X26500000Y-155000D02*
X18200000Y-155000D01*
X18200000Y-155000D02*
X18200000Y-1085000D01*
X14310000Y-41025000D02*
X31310000Y-41025000D01*
X14310000Y-41025000D02*
X14310000Y-5625000D01*
X14310000Y-5625000D02*
X31310000Y-5625000D01*
X1340000Y-47345000D02*
X1340000Y-47025000D01*
X1340000Y-1105000D02*
X18200000Y-1105000D01*
X1340000Y-1105000D02*
X1340000Y-31025000D01*
X60000Y-32025000D02*
X60000Y-36025000D01*
%TO.C,U1*%
X37035000Y-530000D02*
X36695000Y-60000D01*
X37375000Y-60000D01*
X37035000Y-530000D01*
G36*
X37035000Y-530000D02*
G01*
X36695000Y-60000D01*
X37375000Y-60000D01*
X37035000Y-530000D01*
G37*
X45545000Y-10800000D02*
X37825000Y-10800000D01*
X45545000Y-10545000D02*
X45545000Y-10800000D01*
X45545000Y-280000D02*
X45545000Y-535000D01*
X37825000Y-10800000D02*
X37825000Y-10545000D01*
X37825000Y-535000D02*
X37825000Y-280000D01*
X37825000Y-280000D02*
X45545000Y-280000D01*
%TO.C,IN_PCF8574*%
X101620000Y-95230000D02*
X101620000Y-87500000D01*
X104380000Y-87500000D02*
X101620000Y-87500000D01*
X104380000Y-95230000D02*
X101620000Y-95230000D01*
X104380000Y-95230000D02*
X104380000Y-87500000D01*
X104380000Y-96500000D02*
X104380000Y-97880000D01*
X104380000Y-97880000D02*
X103000000Y-97880000D01*
%TO.C,OUT_P0-P3*%
X77580000Y-114620000D02*
X77580000Y-117380000D01*
X85310000Y-114620000D02*
X77580000Y-114620000D01*
X85310000Y-114620000D02*
X85310000Y-117380000D01*
X85310000Y-117380000D02*
X77580000Y-117380000D01*
X86580000Y-114620000D02*
X87960000Y-114620000D01*
X87960000Y-114620000D02*
X87960000Y-116000000D01*
%TO.C,OUT_24/12v*%
X93120000Y-111080000D02*
X94500000Y-111080000D01*
X93120000Y-112460000D02*
X93120000Y-111080000D01*
X93120000Y-113730000D02*
X93120000Y-116380000D01*
X93120000Y-113730000D02*
X95880000Y-113730000D01*
X93120000Y-116380000D02*
X95880000Y-116380000D01*
X95880000Y-113730000D02*
X95880000Y-116380000D01*
%TO.C,IN_P0-P3*%
X87960000Y-110120000D02*
X87960000Y-111500000D01*
X86580000Y-110120000D02*
X87960000Y-110120000D01*
X85310000Y-112880000D02*
X77580000Y-112880000D01*
X85310000Y-110120000D02*
X85310000Y-112880000D01*
X85310000Y-110120000D02*
X77580000Y-110120000D01*
X77580000Y-110120000D02*
X77580000Y-112880000D01*
%TO.C,OUT_PCF8574*%
X88850000Y-88490000D02*
X94850000Y-88490000D01*
X88850000Y-89350000D02*
X88850000Y-88490000D01*
X88850000Y-91030000D02*
X94850000Y-91030000D01*
X88850000Y-91890000D02*
X88850000Y-91030000D01*
X88850000Y-93570000D02*
X94850000Y-93570000D01*
X88850000Y-94430000D02*
X88850000Y-93570000D01*
X94850000Y-89350000D02*
X88850000Y-89350000D01*
X94850000Y-91890000D02*
X88850000Y-91890000D01*
X94850000Y-94430000D02*
X88850000Y-94430000D01*
X97610000Y-90190000D02*
X94850000Y-90190000D01*
X97610000Y-92730000D02*
X94850000Y-92730000D01*
X97610000Y-95270000D02*
X94850000Y-95270000D01*
X97840000Y-96110000D02*
X97610000Y-96110000D01*
X97840000Y-96970000D02*
X97610000Y-96970000D01*
X97922642Y-88490000D02*
X97610000Y-88490000D01*
X97922642Y-89350000D02*
X97610000Y-89350000D01*
X97922642Y-91030000D02*
X97610000Y-91030000D01*
X97922642Y-91890000D02*
X97610000Y-91890000D01*
X97922642Y-93570000D02*
X97610000Y-93570000D01*
X97922642Y-94430000D02*
X97610000Y-94430000D01*
X100270000Y-96540000D02*
X100270000Y-97810000D01*
X100270000Y-97810000D02*
X99000000Y-97810000D01*
X88850000Y-96110000D02*
X94850000Y-96110000D01*
X94850000Y-96970000D01*
X88850000Y-96970000D01*
X88850000Y-96110000D01*
G36*
X88850000Y-96110000D02*
G01*
X94850000Y-96110000D01*
X94850000Y-96970000D01*
X88850000Y-96970000D01*
X88850000Y-96110000D01*
G37*
X94850000Y-87540000D02*
X97610000Y-87540000D01*
X97610000Y-97920000D01*
X94850000Y-97920000D01*
X94850000Y-87540000D01*
%TO.C,R220*%
X80770000Y-105580000D02*
X84610000Y-105580000D01*
X84610000Y-107420000D01*
X80770000Y-107420000D01*
X80770000Y-105580000D01*
X85560000Y-106500000D02*
X84610000Y-106500000D01*
X79820000Y-106500000D02*
X80770000Y-106500000D01*
%TO.C,IN_24/12v*%
X97620000Y-111080000D02*
X99000000Y-111080000D01*
X97620000Y-112460000D02*
X97620000Y-111080000D01*
X97620000Y-113730000D02*
X97620000Y-116380000D01*
X97620000Y-113730000D02*
X100380000Y-113730000D01*
X97620000Y-116380000D02*
X100380000Y-116380000D01*
X100380000Y-113730000D02*
X100380000Y-116380000D01*
%TO.C,LED*%
X91170000Y-105264000D02*
X91170000Y-105420000D01*
X91170000Y-107580000D02*
X91170000Y-107736000D01*
X91170000Y-105264484D02*
G75*
G02*
X94401437Y-105420000I1560000J-1235516D01*
G01*
X91689039Y-105420000D02*
G75*
G02*
X93770961Y-105420000I1040961J-1080000D01*
G01*
X93770961Y-107580000D02*
G75*
G02*
X91689039Y-107580000I-1040961J1080000D01*
G01*
X94401437Y-107580000D02*
G75*
G02*
X91170000Y-107735516I-1671437J1080000D01*
G01*
%TD*%
M02*
